<?xml version="1.0" encoding="UTF-8"?>
<svg id="_图层_1" data-name="图层_1" xmlns="http://www.w3.org/2000/svg" version="1.1" viewBox="0 0 200 200">
  <!-- Generator: Adobe Illustrator 30.1.0, SVG Export Plug-In . SVG Version: 2.1.1 Build 136)  -->
  <defs>
    <style>
      .st0 {
        fill: #fff;
      }
    </style>
  </defs>
  <path class="st0" d="M160.71,63.93c-9.66-16.76-25.85-28.97-44.88-33.23-.57-.28-1.14-.85-1.14-1.42-.28-2.84-1.99-5.4-4.54-6.53h-.29c-3.41-.28-6.53-.57-9.94-.57-3.13,0-6.53.28-10.23.85-2.56,1.14-4.26,3.69-4.54,6.53,0,.57-.57,1.42-1.14,1.42-17.33,3.98-32.09,14.49-42.04,29.26-10.23,15.34-13.92,33.8-10.23,51.98,3.98,19.6,16.47,36.64,34.08,46.3h.57c.28,0,.57-.29.85-.29l9.66-12.5c.28-.28.28-.57.28-.85-.02-.3-.26-.55-.57-.57-12.21-6.25-21.59-16.76-25.85-29.82-4.26-13.07-3.12-26.98,3.12-39.2,8.81-17.33,26.42-28.12,46.01-28.12,8.11,0,16.1,1.94,23.29,5.68,25.56,12.78,35.51,43.74,22.72,69.02-5.11,9.66-12.78,17.61-22.72,22.44-.28.29-.57.29-.57.57s0,.57.28.85l9.66,12.5c.29.29.57.29.85.29s.28,0,.57-.29c16.19-9.09,27.83-23.86,32.95-41.75,5.11-17.89,2.84-36.36-6.25-52.55Z"/>
  <path class="st0" d="M140.83,167.6l-28.97-5.68c-3.98-.85-6.82-4.26-6.82-8.24v-38.63c0-2.56,1.71-4.83,4.26-5.4l13.63-3.69c.57,0,.85-.57.85-.85v-12.78c0-3.69-1.99-7.1-5.11-9.09h-.29c-6.82-1.14-13.35-1.7-19.88-1.7s-13.07.57-19.31,1.42h-.28c-3.12,1.99-5.11,5.4-5.11,9.09v12.78c0,.57.28.85.85.85l13.63,3.69c2.56.57,4.26,2.84,4.26,5.4v38.34c0,3.98-2.84,7.38-6.82,8.24l-28.97,5.68c-1.7.28-3.12,1.99-3.12,3.69v5.97c0,.57.57,1.14,1.14,1.14h88.9c.57,0,1.13-.57,1.13-1.14v-5.97c-.85-1.42-1.99-2.84-3.98-3.12h0Z"/>
</svg>